<svg viewBox="0 0 1058 1024" width="206.640625" height="200"><path d="M335.701333 571.630933h223.470934c0-52.565333-24.746667-83.3536-24.746667-83.3536H340.445867c4.608-95.197867 8.738133-217.361067 10.24-262.7584h184.490666s-1.024-78.062933-21.504-78.062933H189.303467S208.827733 45.3632 234.837333 0.273067c0 0-96.836267-5.2224-129.877333 123.904S22.391467 331.3664 17.169067 345.634133c-5.256533 14.267733 28.501333 6.7584 42.769066 0 14.267733-6.7584 78.848-30.037333 97.621334-120.1152h100.2496c1.365333 57.105067 5.3248 232.072533 4.096 262.7584H55.432533c-29.2864 21.026133-39.0144 83.3536-39.0144 83.3536h235.963734c-9.864533 65.160533-27.136 149.162667-51.3024 193.672534C162.816 835.925333 142.5408 900.471467 4.437333 1011.541333c0 0-22.528 16.520533 47.274667 10.513067 69.8368-6.007467 135.8848-24.029867 181.691733-115.6096a1185.962667 1185.962667 0 0 0 67.618134-169.301333l-0.068267 0.238933 194.4576 223.880533s25.531733-60.074667 6.7584-126.122666l-144.145067-161.450667-48.810666 36.113067-0.034134 0.170666c13.550933-47.5136 23.278933-94.481067 26.3168-135.338666l0.238934-3.003734zM605.730133 130.935467v774.7584h81.442134l33.3824 93.2864 141.175466-93.2864h177.937067V130.935467H605.730133z m350.1056 691.438933h-92.501333l-115.336533 76.1856-27.272534-76.1856h-28.7744V217.3952h263.850667v604.9792z" p-id="4624"></path></svg>