<svg viewBox="0 0 1024 1024" width="200" height="200"><path d="M180.837503 50.755182v15.255882c0 200.441694 0.030886 400.884384-0.033876 601.325081-0.009963 29.845217 4.621002 58.576532 20.154863 84.553976 22.108675 36.972002 57.529383 53.121597 97.983576 59.581834 19.624812 3.13447 39.745799 4.163684 59.657555 4.335054 77.961227 0.67153 155.946366-0.305875 233.888662 1.094972 76.984818 1.387895 149.516019 58.90333 165.288003 129.619208 2.513753 11.283495 2.648259 23.67591 1.076042 35.167639-3.508096 25.623745-23.124937 41.591011-49.442131 41.63485-84.504159 0.129524-169.05415 1.751557-253.499526-0.502153-65.154336-1.741594-112.539035-36.442948-145.468906-91.565186-5.85845-9.808919-2.932214-16.014094 8.374197-19.072842 19.54909-5.282569 36.310435 0.042842 49.750995 15.014769 22.318902 24.85856 49.07548 41.413664 82.793452 45.33225 4.046117 0.469274 8.132087 0.817991 12.200123 0.822973 78.38168 0.04882 156.760371 0.042842 235.143048 0.019926 3.18628-0.005978 6.376544-0.277977 12.902539-0.579867-3.066719-11.565458-4.164681-22.633744-8.780701-31.94848-24.321535-49.087436-66.188532-72.654746-119.265293-73.816473-77.527821-1.697755-155.120404-0.164395-232.682101-0.555955-44.420603-0.230153-88.011259-6.10056-127.84872-27.427112C159.249911 804.907103 132.645772 748.252502 130.971929 678.857764c-1.777462-73.831418-1.386898-147.720623-1.497492-221.58492-0.193289-131.451468-0.057787-262.901939-0.051809-394.351415 0.000996-47.440494 26.98175-70.105125 74.258845-60.902974 69.333961 13.497351 108.977138 58.534686 126.515624 124.454207 5.070349 19.057897 7.067005 39.45188 7.124792 59.242083 0.524072 180.845775 0.308864 361.692547 0.304879 542.539319-0.001993 4.083977 0.265025 8.200834-0.175355 12.239977-1.335089 12.263888-10.008186 18.042632-21.649365 13.875958-17.404977-6.230083-24.318546-20.760634-27.428108-37.4891-1.180657-6.349643-0.897698-13.010143-0.897698-19.527171-0.042842-165.745321-0.044835-331.487653-0.020923-497.228988 0.001993-27.017618-1.102943-53.921654-11.579406-79.321225-14.739781-35.749499-39.454869-60.457612-78.42253-68.58671-4.668826-0.974416-9.55585-0.875779-16.61588-1.461623z" p-id="516"></path></svg>