<?xml version="1.0" standalone="no"?><!DOCTYPE svg PUBLIC "-//W3C//DTD SVG 1.1//EN" "http://www.w3.org/Graphics/SVG/1.1/DTD/svg11.dtd"><svg t="1502719027986" class="icon" style="" viewBox="0 0 1024 1024" version="1.1" xmlns="http://www.w3.org/2000/svg" p-id="2312" xmlns:xlink="http://www.w3.org/1999/xlink" width="200" height="200"><defs><style type="text/css"></style></defs><path d="M206.28949 0 290.563307 26.480867C279.326741 50.019533 269.494895 73.557847 261.067471 97.096513L518.102609 97.096513 518.102609 180.952592 370.623431 180.952592C393.096561 210.375925 415.569354 242.741105 438.042484 278.049105L349.554977 326.597361C327.081848 276.577696 301.799956 228.029925 273.708543 180.952592L218.930563 180.952592 172.579964 255.981716C155.725117 279.520382 133.252324 306.000984 105.160912 335.424317L29.314477 278.049105C110.779573 195.663773 169.770655 102.981665 206.28949 0L206.28949 0ZM644.513333 0 724.573458 26.480867C716.146034 50.019533 706.314187 73.557847 695.077623 97.096513L994.249666 97.096513 994.249666 180.952592 821.488345 180.952592C843.961477 210.375925 863.625173 241.269961 880.480019 273.635627L804.63358 322.183883C779.351312 272.164218 752.664867 225.087591 724.573458 180.952592L657.154405 180.952592C629.062993 233.914591 592.544705 283.933507 547.598445 331.010839L471.75201 273.635627C550.407965 191.250295 607.994497 100.039331 644.513333 0L644.513333 0ZM252.640089 308.94345C291.968067 347.193782 324.272706 388.385831 349.554977 432.52083L269.494853 476.655608C249.830864 435.462942 220.335323 394.270894 181.007346 353.078229L252.640089 308.94345ZM395.905576 348.664751 939.471685 348.664751 939.471685 904.762964C939.471685 943.013295 931.044394 972.436184 914.189541 993.032517 897.334696 1013.62885 872.052801 1023.926862 838.34311 1023.926862 810.251698 1023.926862 776.542505 1022.455721 737.214527 1019.513387L716.146076 935.657302C761.092333 938.599636 797.610626 940.070785 825.702038 940.070785 845.366027 940.070785 855.197875 919.474759 855.197875 878.282094L855.197875 423.693874 395.905576 423.693874 395.905576 348.664751ZM109.374602 467.828652 193.648418 467.828652 193.648418 1023.926862 109.374602 1023.926862 109.374602 467.828652ZM703.505004 516.376909 703.505004 895.936005 315.845451 895.936005 315.845451 516.376909 703.505004 516.376909ZM623.444879 666.435156 623.444879 591.406033 395.905576 591.406033 395.905576 666.435156 623.444879 666.435156ZM395.905576 737.050801 395.905576 820.906879 623.444879 820.906879 623.444879 737.050801 395.905576 737.050801Z" p-id="2313"></path></svg>