<svg viewBox="0 0 1024 1024"><path d="M127.175692 65.513086l769.820538 0 0 86.713944-769.820538 0 0-86.713944Z" p-id="5281"></path><path d="M830.077383 581.666686 830.077383 242.681158 194.093517 242.681158l0 338.985528L830.077383 581.666686zM286.318765 329.333704l452.4595 0 0 165.727509L286.318765 495.061212 286.318765 329.333704z" p-id="5282"></path><path d="M692.507533 777.056772c27.674431-42.361807 53.787231-91.488691 77.986369-147.250692l-92.526113-33.719986c-24.064055 66.078974-52.079262 126.495996-83.960681 180.970678L433.005632 777.056772c-26.683829-70.601988-56.795878-130.973984-90.57868-180.970678l-85.097622 33.719986c35.098829 52.647057 63.400573 101.654214 85.097622 147.250692L105.401892 777.056772l0 85.766362L918.796637 862.823134l0-85.766362L692.507533 777.056772z" p-id="5283"></path></svg>